<mxfile host="app.diagrams.net" modified="2023-06-24T18:02:08.725Z" agent="Mozilla/5.0 (Macintosh; Intel Mac OS X 10_15_7) AppleWebKit/537.36 (KHTML, like Gecko) Chrome/114.0.0.0 Safari/537.36" etag="cWToEhoS7w1My_kvIX9g" version="21.5.0" type="device">
  <diagram id="kgpKYQtTHZ0yAKxKKP6v" name="Page-1">
    <mxGraphModel dx="954" dy="534" grid="1" gridSize="10" guides="1" tooltips="1" connect="1" arrows="1" fold="1" page="1" pageScale="1" pageWidth="850" pageHeight="1100" math="0" shadow="0">
      <root>
        <mxCell id="0" />
        <mxCell id="1" parent="0" />
        <mxCell id="3nuBFxr9cyL0pnOWT2aG-1" value=":User" style="shape=umlLifeline;perimeter=lifelinePerimeter;container=1;collapsible=0;recursiveResize=0;rounded=0;shadow=0;strokeWidth=1;" parent="1" vertex="1">
          <mxGeometry x="120" y="80" width="100" height="560" as="geometry" />
        </mxCell>
        <mxCell id="3nuBFxr9cyL0pnOWT2aG-2" value="" style="points=[];perimeter=orthogonalPerimeter;rounded=0;shadow=0;strokeWidth=1;" parent="3nuBFxr9cyL0pnOWT2aG-1" vertex="1">
          <mxGeometry x="45" y="66" width="10" height="50" as="geometry" />
        </mxCell>
        <mxCell id="b4C4YBzrgfsNjFejw_3Q-19" value="" style="points=[];perimeter=orthogonalPerimeter;rounded=0;shadow=0;strokeWidth=1;" parent="3nuBFxr9cyL0pnOWT2aG-1" vertex="1">
          <mxGeometry x="45" y="487" width="10" height="59" as="geometry" />
        </mxCell>
        <mxCell id="3nuBFxr9cyL0pnOWT2aG-5" value=":App" style="shape=umlLifeline;perimeter=lifelinePerimeter;container=1;collapsible=0;recursiveResize=0;rounded=0;shadow=0;strokeWidth=1;" parent="1" vertex="1">
          <mxGeometry x="510" y="80" width="120" height="490" as="geometry" />
        </mxCell>
        <mxCell id="p9ofNzFv0D4uH2ADNaXC-24" value="" style="points=[];perimeter=orthogonalPerimeter;rounded=0;shadow=0;strokeWidth=1;" parent="3nuBFxr9cyL0pnOWT2aG-5" vertex="1">
          <mxGeometry x="55" y="166" width="10" height="40" as="geometry" />
        </mxCell>
        <mxCell id="b4C4YBzrgfsNjFejw_3Q-9" value="" style="points=[];perimeter=orthogonalPerimeter;rounded=0;shadow=0;strokeWidth=1;" parent="3nuBFxr9cyL0pnOWT2aG-5" vertex="1">
          <mxGeometry x="55" y="264" width="10" height="40" as="geometry" />
        </mxCell>
        <mxCell id="p9ofNzFv0D4uH2ADNaXC-1" value="User" style="shape=umlActor;verticalLabelPosition=bottom;verticalAlign=top;html=1;outlineConnect=0;" parent="1" vertex="1">
          <mxGeometry x="30" y="70" width="30" height="60" as="geometry" />
        </mxCell>
        <mxCell id="p9ofNzFv0D4uH2ADNaXC-17" value=":Merchant App" style="shape=umlLifeline;perimeter=lifelinePerimeter;container=1;collapsible=0;recursiveResize=0;rounded=0;shadow=0;strokeWidth=1;" parent="1" vertex="1">
          <mxGeometry x="330" y="80" width="100" height="510" as="geometry" />
        </mxCell>
        <mxCell id="p9ofNzFv0D4uH2ADNaXC-18" value="" style="points=[];perimeter=orthogonalPerimeter;rounded=0;shadow=0;strokeWidth=1;" parent="p9ofNzFv0D4uH2ADNaXC-17" vertex="1">
          <mxGeometry x="45" y="110" width="10" height="60" as="geometry" />
        </mxCell>
        <mxCell id="p9ofNzFv0D4uH2ADNaXC-29" value="" style="points=[];perimeter=orthogonalPerimeter;rounded=0;shadow=0;strokeWidth=1;" parent="1" vertex="1">
          <mxGeometry x="165" y="381" width="10" height="59" as="geometry" />
        </mxCell>
        <mxCell id="b4C4YBzrgfsNjFejw_3Q-1" value=":Payment Gateway" style="shape=umlLifeline;perimeter=lifelinePerimeter;container=1;collapsible=0;recursiveResize=0;rounded=0;shadow=0;strokeWidth=1;" parent="1" vertex="1">
          <mxGeometry x="720" y="80" width="120" height="450" as="geometry" />
        </mxCell>
        <mxCell id="b4C4YBzrgfsNjFejw_3Q-2" value="" style="points=[];perimeter=orthogonalPerimeter;rounded=0;shadow=0;strokeWidth=1;" parent="b4C4YBzrgfsNjFejw_3Q-1" vertex="1">
          <mxGeometry x="53" y="197" width="10" height="73" as="geometry" />
        </mxCell>
        <mxCell id="b4C4YBzrgfsNjFejw_3Q-3" value="" style="endArrow=classic;html=1;rounded=0;exitX=1;exitY=0.98;exitDx=0;exitDy=0;exitPerimeter=0;entryX=-0.2;entryY=0.067;entryDx=0;entryDy=0;entryPerimeter=0;" parent="1" source="3nuBFxr9cyL0pnOWT2aG-2" target="p9ofNzFv0D4uH2ADNaXC-18" edge="1">
          <mxGeometry width="50" height="50" relative="1" as="geometry">
            <mxPoint x="400" y="300" as="sourcePoint" />
            <mxPoint x="370" y="195" as="targetPoint" />
          </mxGeometry>
        </mxCell>
        <mxCell id="b4C4YBzrgfsNjFejw_3Q-4" value="Click checkout on merchant app" style="text;html=1;strokeColor=none;fillColor=none;align=center;verticalAlign=middle;whiteSpace=wrap;rounded=0;" parent="1" vertex="1">
          <mxGeometry x="180" y="170" width="190" height="30" as="geometry" />
        </mxCell>
        <mxCell id="b4C4YBzrgfsNjFejw_3Q-6" value="{api} pay_to_detikpayment()" style="verticalAlign=bottom;endArrow=block;entryX=0.1;entryY=0.1;shadow=0;strokeWidth=1;exitX=1.2;exitY=0.983;exitDx=0;exitDy=0;exitPerimeter=0;entryDx=0;entryDy=0;entryPerimeter=0;" parent="1" source="p9ofNzFv0D4uH2ADNaXC-18" target="p9ofNzFv0D4uH2ADNaXC-24" edge="1">
          <mxGeometry relative="1" as="geometry">
            <mxPoint x="505" y="200" as="sourcePoint" />
            <mxPoint x="110" y="200" as="targetPoint" />
          </mxGeometry>
        </mxCell>
        <mxCell id="b4C4YBzrgfsNjFejw_3Q-7" value="{api} checkout()" style="verticalAlign=bottom;endArrow=block;shadow=0;strokeWidth=1;exitX=1.2;exitY=0.925;exitDx=0;exitDy=0;exitPerimeter=0;entryX=0;entryY=0.082;entryDx=0;entryDy=0;entryPerimeter=0;" parent="1" source="p9ofNzFv0D4uH2ADNaXC-24" target="b4C4YBzrgfsNjFejw_3Q-2" edge="1">
          <mxGeometry relative="1" as="geometry">
            <mxPoint x="397" y="258.98" as="sourcePoint" />
            <mxPoint x="770" y="283" as="targetPoint" />
          </mxGeometry>
        </mxCell>
        <mxCell id="b4C4YBzrgfsNjFejw_3Q-10" value="return post_callback()" style="verticalAlign=bottom;endArrow=block;shadow=0;strokeWidth=1;exitX=-0.1;exitY=0.986;exitDx=0;exitDy=0;exitPerimeter=0;entryX=1;entryY=0.125;entryDx=0;entryDy=0;entryPerimeter=0;dashed=1;" parent="1" source="b4C4YBzrgfsNjFejw_3Q-2" target="b4C4YBzrgfsNjFejw_3Q-9" edge="1">
          <mxGeometry relative="1" as="geometry">
            <mxPoint x="587" y="293" as="sourcePoint" />
            <mxPoint x="783" y="292.986" as="targetPoint" />
          </mxGeometry>
        </mxCell>
        <mxCell id="b4C4YBzrgfsNjFejw_3Q-12" value="return payment_reference()" style="verticalAlign=bottom;endArrow=block;shadow=0;strokeWidth=1;exitX=-0.1;exitY=0.95;exitDx=0;exitDy=0;exitPerimeter=0;dashed=1;" parent="1" source="b4C4YBzrgfsNjFejw_3Q-9" target="p9ofNzFv0D4uH2ADNaXC-29" edge="1">
          <mxGeometry relative="1" as="geometry">
            <mxPoint x="792" y="368.97799999999995" as="sourcePoint" />
            <mxPoint x="180" y="380" as="targetPoint" />
          </mxGeometry>
        </mxCell>
        <mxCell id="b4C4YBzrgfsNjFejw_3Q-13" value="pay()" style="verticalAlign=bottom;endArrow=block;entryX=0.1;entryY=0.068;shadow=0;strokeWidth=1;exitX=1.2;exitY=0.983;exitDx=0;exitDy=0;exitPerimeter=0;entryDx=0;entryDy=0;entryPerimeter=0;" parent="1" target="b4C4YBzrgfsNjFejw_3Q-14" edge="1">
          <mxGeometry relative="1" as="geometry">
            <mxPoint x="165" y="440" as="sourcePoint" />
            <mxPoint x="344" y="441.02" as="targetPoint" />
          </mxGeometry>
        </mxCell>
        <mxCell id="b4C4YBzrgfsNjFejw_3Q-14" value="" style="points=[];perimeter=orthogonalPerimeter;rounded=0;shadow=0;strokeWidth=1;" parent="1" vertex="1">
          <mxGeometry x="775" y="434" width="10" height="73" as="geometry" />
        </mxCell>
        <mxCell id="b4C4YBzrgfsNjFejw_3Q-15" value="" style="points=[];perimeter=orthogonalPerimeter;rounded=0;shadow=0;strokeWidth=1;" parent="1" vertex="1">
          <mxGeometry x="565" y="497" width="10" height="43" as="geometry" />
        </mxCell>
        <mxCell id="b4C4YBzrgfsNjFejw_3Q-16" value="return send_notif()" style="verticalAlign=bottom;endArrow=block;shadow=0;strokeWidth=1;exitX=0.1;exitY=0.986;exitDx=0;exitDy=0;exitPerimeter=0;entryX=0.9;entryY=0.163;entryDx=0;entryDy=0;entryPerimeter=0;dashed=1;" parent="1" source="b4C4YBzrgfsNjFejw_3Q-14" target="b4C4YBzrgfsNjFejw_3Q-15" edge="1">
          <mxGeometry relative="1" as="geometry">
            <mxPoint x="782" y="358.97799999999995" as="sourcePoint" />
            <mxPoint x="585" y="359" as="targetPoint" />
          </mxGeometry>
        </mxCell>
        <mxCell id="b4C4YBzrgfsNjFejw_3Q-17" value="" style="points=[];perimeter=orthogonalPerimeter;rounded=0;shadow=0;strokeWidth=1;" parent="1" vertex="1">
          <mxGeometry x="375" y="530" width="10" height="43" as="geometry" />
        </mxCell>
        <mxCell id="b4C4YBzrgfsNjFejw_3Q-18" value="return send_notif()" style="verticalAlign=bottom;endArrow=block;shadow=0;strokeWidth=1;exitX=0.1;exitY=0.986;exitDx=0;exitDy=0;exitPerimeter=0;dashed=1;entryX=1;entryY=0.163;entryDx=0;entryDy=0;entryPerimeter=0;" parent="1" target="b4C4YBzrgfsNjFejw_3Q-17" edge="1">
          <mxGeometry relative="1" as="geometry">
            <mxPoint x="566" y="537.9680000000001" as="sourcePoint" />
            <mxPoint x="400" y="536" as="targetPoint" />
          </mxGeometry>
        </mxCell>
        <mxCell id="b4C4YBzrgfsNjFejw_3Q-20" value="return send_notif()" style="verticalAlign=bottom;endArrow=block;shadow=0;strokeWidth=1;exitX=0.1;exitY=0.986;exitDx=0;exitDy=0;exitPerimeter=0;dashed=1;entryX=0.9;entryY=0.034;entryDx=0;entryDy=0;entryPerimeter=0;" parent="1" target="b4C4YBzrgfsNjFejw_3Q-19" edge="1">
          <mxGeometry relative="1" as="geometry">
            <mxPoint x="375" y="571.9580000000001" as="sourcePoint" />
            <mxPoint x="194" y="570.999" as="targetPoint" />
          </mxGeometry>
        </mxCell>
      </root>
    </mxGraphModel>
  </diagram>
</mxfile>
